<svg width="418" height="333" viewBox="0 0 418 333" fill="none" xmlns="http://www.w3.org/2000/svg">
<path opacity="0.35" d="M175.104 0.563306C286.246 -5.67526 337.914 40.6461 366.48 102.72C395.046 164.793 437.348 186.161 408.158 257.592C378.968 329.024 273.446 338.537 232.236 330.115C191.026 321.693 148.255 300.17 96.8994 283.794C20.5676 259.62 1.67981 227.803 0.118838 196.454C-2.06653 152.16 26.4993 147.17 35.553 98.5088C46.3237 40.4901 88.0018 5.39819 175.104 0.563306Z" fill="#A8C0E4"/>
<path d="M281.723 243.801H219.174V275.956H281.723V243.801Z" fill="#58697F"/>
<path d="M379.98 238.811C379.98 241.103 379.069 243.3 377.449 244.921C375.828 246.541 373.63 247.452 371.339 247.452H129.612C127.32 247.452 125.122 246.541 123.502 244.921C121.881 243.3 120.971 241.103 120.971 238.811V77.7675C120.971 75.4758 121.881 73.278 123.502 71.6575C125.122 70.037 127.32 69.1266 129.612 69.1266H371.285C373.576 69.1266 375.774 70.037 377.395 71.6575C379.015 73.278 379.926 75.4758 379.926 77.7675L379.98 238.811Z" fill="#BEC4DB"/>
<path d="M378.467 243.693C377.619 244.812 376.537 245.732 375.296 246.388C374.056 247.045 372.687 247.423 371.285 247.495H129.612C127.32 247.495 125.122 246.585 123.502 244.964C121.881 243.344 120.971 241.146 120.971 238.854V77.7674C120.974 75.5172 121.845 73.3548 123.401 71.7296L378.467 243.693Z" fill="#607085"/>
<path d="M364.114 227.146C364.114 228.144 363.916 229.133 363.532 230.054C363.148 230.976 362.585 231.812 361.876 232.515C361.168 233.218 360.326 233.774 359.402 234.15C358.477 234.526 357.487 234.715 356.488 234.707H144.356C143.358 234.715 142.368 234.526 141.443 234.15C140.518 233.774 139.677 233.218 138.968 232.515C138.259 231.812 137.696 230.976 137.312 230.054C136.928 229.133 136.73 228.144 136.73 227.146V87.5317C136.73 86.5333 136.928 85.5448 137.312 84.6233C137.696 83.7017 138.259 82.8654 138.968 82.1624C139.677 81.4595 140.518 80.9039 141.443 80.5278C142.368 80.1517 143.358 79.9624 144.356 79.971H356.488C357.487 79.9624 358.477 80.1517 359.402 80.5278C360.326 80.9039 361.168 81.4595 361.876 82.1624C362.585 82.8654 363.148 83.7017 363.532 84.6233C363.916 85.5448 364.114 86.5333 364.114 87.5317V227.146Z" fill="#537DC2"/>
<path opacity="0.5" d="M361.878 232.471C362.583 231.775 363.143 230.946 363.525 230.032C363.907 229.118 364.103 228.137 364.103 227.146V87.5317C364.103 86.5333 363.905 85.5448 363.521 84.6233C363.137 83.7017 362.574 82.8654 361.865 82.1624C361.156 81.4595 360.315 80.9039 359.39 80.5278C358.466 80.1517 357.475 79.9624 356.477 79.971H144.356C143.345 79.9855 142.348 80.2001 141.421 80.6024C140.494 81.0047 139.656 81.5867 138.955 82.3148L361.878 232.471Z" fill="#6F99DD"/>
<path d="M207.93 275.956H289.942L311.048 290.245H192.441L207.93 275.956Z" fill="#BEC4DB"/>
<path d="M311.048 290.245H192.441V299.588H311.048V290.245Z" fill="#58697F"/>
<path d="M44.0219 173.547C49.5053 218.902 82.8389 238.259 116.487 238.259C157.753 238.259 185.739 203.463 190.653 168.667C193.101 151.359 192.353 159.358 192.353 122.718C192.353 72.7129 162.598 76.3515 162.598 76.3515C162.598 76.3515 138.795 46.8604 93.4401 59.1703C68.7863 65.8608 41.582 83.5096 41.582 137.612C41.582 155.159 42.7127 162.665 44.0219 173.547Z" fill="#4C2400"/>
<path d="M158.678 258.441L126.263 251.139H106.71L74.2944 258.441C74.2944 258.441 49.292 270.343 49.292 285.543V315.689H183.613V285.543C183.681 270.369 158.678 258.441 158.678 258.441Z" fill="#096F93"/>
<path d="M143.629 255.049L126.261 251.139H116.697H116.306H106.734L89.3739 255.049L89.0254 255.219L111.409 315.698H116.306H116.4H116.604H116.697H121.594L143.978 255.219L143.629 255.049Z" fill="white"/>
<path d="M105.511 219.072V251.139C105.588 253.87 106.728 256.464 108.688 258.369C110.648 260.273 113.273 261.339 116.006 261.339C118.738 261.339 121.364 260.273 123.323 258.369C125.283 256.464 126.423 253.87 126.501 251.139V219.072H105.511Z" fill="#E9C49D"/>
<g style="mix-blend-mode:multiply">
<path d="M105.478 236.168C108.838 236.338 112.344 236.426 115.994 236.431C119.581 236.431 123.084 236.278 126.51 236.015V219.072H105.478V236.168Z" fill="#D7D8DC"/>
</g>
<path d="M185.151 161.484C185.151 176.658 166.074 232.895 116.23 232.895C60.1217 232.895 47.3018 176.701 47.3018 161.484V127.886C47.3018 104.219 74.1489 72.9168 116.23 72.9168C163.404 72.9168 185.151 103.071 185.151 127.886V161.484Z" fill="#E9C49D"/>
<path d="M116.222 69.5163C74.1401 69.5163 47.293 102.102 47.293 126.747V155.652C133.641 168.565 151.613 107.194 151.613 107.194C153.815 157.352 185.15 155.652 185.15 155.652V126.747C185.15 100.912 163.395 69.5163 116.222 69.5163Z" fill="#572B0C"/>
<path d="M126.552 251.139L136.252 267.41L116.002 261.621C116.002 261.621 126.552 260.43 126.552 251.139Z" fill="#D7D8DC"/>
<path d="M105.512 251.479L95.0381 266.653L115.985 261.629C115.985 261.629 105.512 260.788 105.512 251.479Z" fill="#D7D8DC"/>
<path d="M116.342 284.421C117.643 284.421 118.697 283.367 118.697 282.066C118.697 280.766 117.643 279.711 116.342 279.711C115.042 279.711 113.987 280.766 113.987 282.066C113.987 283.367 115.042 284.421 116.342 284.421Z" fill="#D7D8DC"/>
<path d="M116.342 298.117C117.643 298.117 118.697 297.063 118.697 295.762C118.697 294.461 117.643 293.407 116.342 293.407C115.042 293.407 113.987 294.461 113.987 295.762C113.987 297.063 115.042 298.117 116.342 298.117Z" fill="#D7D8DC"/>
<path d="M116.342 311.804C117.643 311.804 118.697 310.749 118.697 309.449C118.697 308.148 117.643 307.094 116.342 307.094C115.042 307.094 113.987 308.148 113.987 309.449C113.987 310.749 115.042 311.804 116.342 311.804Z" fill="#D7D8DC"/>
<path d="M87.2155 315.689C86.959 312.764 86.09 309.925 84.6651 307.358C77.0139 293.654 72.4827 283.248 91.2621 266.245C110.042 249.243 104.788 234.076 104.788 234.076C87.6745 234.926 72.6527 221.239 72.6527 221.239C26.9836 247.593 56.9678 297.964 68.8271 315.689H87.2155Z" fill="#4C2400"/>
<path d="M191.08 166.912C191.93 161.285 189.702 156.283 186.104 155.74C182.506 155.196 178.901 159.317 178.051 164.944C177.201 170.571 179.428 175.572 183.026 176.116C186.624 176.659 190.23 172.539 191.08 166.912Z" fill="#E9C49D"/>
<path d="M48.8426 176.066C52.4405 175.523 54.6682 170.521 53.8182 164.894C52.9683 159.268 49.3625 155.147 45.7646 155.69C42.1667 156.234 39.939 161.236 40.789 166.862C41.6389 172.489 45.2446 176.61 48.8426 176.066Z" fill="#E9C49D"/>
<path d="M184.555 178.41C185.964 178.41 187.106 177.268 187.106 175.859C187.106 174.451 185.964 173.309 184.555 173.309C183.147 173.309 182.005 174.451 182.005 175.859C182.005 177.268 183.147 178.41 184.555 178.41Z" fill="white"/>
<path d="M46.7662 178.41C48.1748 178.41 49.3166 177.268 49.3166 175.859C49.3166 174.451 48.1748 173.309 46.7662 173.309C45.3577 173.309 44.2158 174.451 44.2158 175.859C44.2158 177.268 45.3577 178.41 46.7662 178.41Z" fill="white"/>
<path d="M186.459 186.325L187.922 192.531C188.508 195.032 188.077 197.664 186.724 199.848C185.37 202.032 183.205 203.589 180.704 204.177L137.738 213.172" stroke="#322E2C" stroke-width="2.58" stroke-linecap="round" stroke-linejoin="round"/>
<path d="M135.994 220.332C141.256 219.098 144.848 215.229 144.018 211.691C143.189 208.153 138.251 206.285 132.989 207.519C127.728 208.753 124.136 212.622 124.965 216.16C125.795 219.698 130.733 221.566 135.994 220.332Z" fill="#434142"/>
<path d="M193.041 146.02C192.683 146.02 192.328 145.949 191.998 145.812C191.667 145.675 191.367 145.473 191.114 145.22C190.861 144.966 190.661 144.666 190.525 144.334C190.389 144.003 190.319 143.649 190.32 143.291C190.32 104.856 156.978 73.58 115.993 73.58C75.0083 73.58 41.6661 104.848 41.6661 143.291C41.6661 144.013 41.3791 144.706 40.8681 145.217C40.3571 145.728 39.6641 146.015 38.9415 146.015C38.2189 146.015 37.5258 145.728 37.0148 145.217C36.5039 144.706 36.2168 144.013 36.2168 143.291C36.2168 101.847 72.0074 68.1306 115.993 68.1306C159.979 68.1306 195.77 101.847 195.77 143.291C195.77 144.015 195.482 144.709 194.97 145.22C194.459 145.732 193.764 146.02 193.041 146.02Z" fill="#99989D"/>
<path d="M157.402 84.3428C154.078 86.9527 148.459 86.5021 144.319 84.1642C127.231 74.3452 104.55 74.3452 87.4619 84.1642C83.3303 86.5021 77.7109 86.9527 74.3784 84.3428C71.0544 81.7924 72.4316 76.0285 78.1955 72.7299C100.86 59.7144 130.904 59.7144 153.585 72.7299C159.349 76.0285 160.726 81.7499 157.402 84.3428Z" fill="#322E2C"/>
<path d="M197.113 184.072C196.868 186.16 195.803 188.066 194.153 189.37C192.503 190.675 190.403 191.27 188.314 191.026C187.278 190.905 186.276 190.582 185.365 190.074C184.455 189.566 183.653 188.884 183.006 188.066C182.36 187.248 181.881 186.31 181.597 185.307C181.313 184.303 181.229 183.254 181.351 182.218L185.874 143.469C185.994 142.434 186.317 141.433 186.825 140.523C187.332 139.613 188.014 138.812 188.831 138.165C189.648 137.518 190.585 137.039 191.587 136.755C192.589 136.47 193.638 136.386 194.673 136.507C195.708 136.627 196.709 136.95 197.619 137.457C198.529 137.965 199.331 138.646 199.977 139.464C200.624 140.281 201.103 141.217 201.388 142.22C201.672 143.222 201.756 144.271 201.636 145.306L197.113 184.072Z" fill="#322E2C"/>
<path d="M201.798 145.28H201.636L197.113 184.114H197.266C201.874 184.65 206.414 178.163 207.876 165.658C209.245 153.9 206.405 145.816 201.798 145.28Z" fill="#99989D"/>
<path d="M34.8658 184.072C35.1108 186.16 36.1753 188.066 37.8254 189.371C39.4754 190.675 41.5758 191.27 43.6647 191.026C44.7005 190.905 45.7025 190.582 46.6132 190.074C47.5239 189.566 48.3256 188.884 48.9723 188.066C49.619 187.248 50.0981 186.31 50.382 185.307C50.666 184.304 50.7493 183.254 50.6273 182.218L46.1045 143.469C45.8575 141.378 44.79 139.471 43.1367 138.167C41.4835 136.863 39.3799 136.269 37.2887 136.515C35.1993 136.76 33.2925 137.825 31.9871 139.474C30.6817 141.124 30.0843 143.224 30.3261 145.314L34.8658 184.072Z" fill="#322E2C"/>
<path d="M30.1805 145.28H30.342L34.8733 184.114H34.7202C30.1125 184.65 25.5643 178.163 24.1106 165.658C22.7334 153.9 25.5728 145.816 30.1805 145.28Z" fill="#99989D"/>
</svg>
